<?xml version="1.0" encoding="UTF-8"?>
<svg width="246px" height="56px" viewBox="0 0 246 56" version="1.1" xmlns="http://www.w3.org/2000/svg" xmlns:xlink="http://www.w3.org/1999/xlink">
    <title>Group 5</title>
    <g id="Page-1" stroke="none" stroke-width="1" fill="none" fill-rule="evenodd">
        <g id="Tablet-Copy-3" transform="translate(-476.000000, -48.000000)" fill-rule="nonzero">
            <g id="Group-3" transform="translate(443.000000, 48.988000)">
                <g id="Group-25" transform="translate(33.732422, 0.000000)">
                    <g id="DAVID-LE" transform="translate(39.643578, 0.000000)">
                        <path d="M0,24.012 L9.468,24.012 C16.992,24.012 22.212,19.26 22.212,12.024 C22.212,4.788 16.992,0 9.468,0 L0,0 L0,24.012 Z M5.112,19.512 L5.112,4.5 L9.468,4.5 C14.4,4.5 16.992,7.776 16.992,12.024 C16.992,16.092 14.22,19.512 9.468,19.512 L5.112,19.512 Z" id="Shape" fill="#333333"></path>
                        <path d="M43.436,24.012 L49.016,24.012 L39.764,0 L33.356,0 L24.068,24.012 L29.684,24.012 L31.196,19.872 L41.924,19.872 L43.436,24.012 Z M36.56,4.428 L40.52,15.444 L32.564,15.444 L36.56,4.428 Z" id="Shape" fill="#333333"></path>
                        <polygon id="Path" fill="#333333" points="58.288 24.012 64.696 24.012 73.948 0 68.116 0 61.492 18.468 54.832 0 49 0"></polygon>
                        <polygon id="Path" fill="#333333" points="78.18 24.012 83.292 24.012 83.292 0 78.18 0"></polygon>
                        <path d="M90.044,24.012 L99.512,24.012 C107.036,24.012 112.256,19.26 112.256,12.024 C112.256,4.788 107.036,0 99.512,0 L90.044,0 L90.044,24.012 Z M95.156,19.512 L95.156,4.5 L99.512,4.5 C104.444,4.5 107.036,7.776 107.036,12.024 C107.036,16.092 104.264,19.512 99.512,19.512 L95.156,19.512 Z" id="Shape" fill="#333333"></path>
                        <polygon id="Path" fill="#999999" points="129.108 24.012 144.372 24.012 144.372 19.512 134.22 19.512 134.22 0 129.108 0"></polygon>
                        <polygon id="Path" fill="#999999" points="149.936 24.012 166.928 24.012 166.928 19.584 155.048 19.584 155.048 14.004 166.676 14.004 166.676 9.612 155.048 9.612 155.048 4.392 166.928 4.392 166.928 0 149.936 0"></polygon>
                    </g>
                    <g id="User-Experience-Desi" transform="translate(0.000000, 43.012000)" fill="#AAAAAA">
                        <path d="M6.375,0.46875 L6.375,6.16992188 C6.375,7.07617188 6.08496094,7.79394531 5.50488281,8.32324219 C4.92480469,8.85253906 4.15234375,9.1171875 3.1875,9.1171875 C2.2109375,9.1171875 1.43554688,8.85644531 0.861328125,8.33496094 C0.287109375,7.81347656 0,7.08984375 0,6.1640625 L0,0.46875 L1.4765625,0.46875 L1.4765625,6.17578125 C1.4765625,6.74609375 1.62109375,7.18164062 1.91015625,7.48242188 C2.19921875,7.78320312 2.625,7.93359375 3.1875,7.93359375 C4.328125,7.93359375 4.8984375,7.33203125 4.8984375,6.12890625 L4.8984375,0.46875 L6.375,0.46875 Z" id="Path"></path>
                        <path d="M12.3730469,7.27734375 C12.3730469,7.0234375 12.2685547,6.83007812 12.0595703,6.69726562 C11.8505859,6.56445312 11.5039062,6.44726562 11.0195312,6.34570312 C10.5351562,6.24414062 10.1308594,6.11523438 9.80664062,5.95898438 C9.09570312,5.61523438 8.74023438,5.1171875 8.74023438,4.46484375 C8.74023438,3.91796875 8.97070312,3.4609375 9.43164062,3.09375 C9.89257812,2.7265625 10.4785156,2.54296875 11.1894531,2.54296875 C11.9472656,2.54296875 12.5595703,2.73046875 13.0263672,3.10546875 C13.4931641,3.48046875 13.7265625,3.96679688 13.7265625,4.56445312 L12.3027344,4.56445312 C12.3027344,4.29101562 12.2011719,4.06347656 11.9980469,3.88183594 C11.7949219,3.70019531 11.5253906,3.609375 11.1894531,3.609375 C10.8769531,3.609375 10.6220703,3.68164062 10.4248047,3.82617188 C10.2275391,3.97070312 10.1289062,4.1640625 10.1289062,4.40625 C10.1289062,4.625 10.2207031,4.79492188 10.4042969,4.91601562 C10.5878906,5.03710938 10.9589844,5.15917969 11.5175781,5.28222656 C12.0761719,5.40527344 12.5146484,5.55175781 12.8330078,5.72167969 C13.1513672,5.89160156 13.3876953,6.09570312 13.5419922,6.33398438 C13.6962891,6.57226562 13.7734375,6.86132812 13.7734375,7.20117188 C13.7734375,7.77148438 13.5371094,8.23339844 13.0644531,8.58691406 C12.5917969,8.94042969 11.9726562,9.1171875 11.2070312,9.1171875 C10.6875,9.1171875 10.2246094,9.0234375 9.81835938,8.8359375 C9.41210938,8.6484375 9.09570312,8.390625 8.86914062,8.0625 C8.64257812,7.734375 8.52929688,7.38085938 8.52929688,7.00195312 L9.91210938,7.00195312 C9.93164062,7.33789062 10.0585938,7.59667969 10.2929688,7.77832031 C10.5273438,7.95996094 10.8378906,8.05078125 11.2246094,8.05078125 C11.5996094,8.05078125 11.8847656,7.97949219 12.0800781,7.83691406 C12.2753906,7.69433594 12.3730469,7.5078125 12.3730469,7.27734375 Z" id="Path"></path>
                        <path d="M18.8046875,9.1171875 C17.9023438,9.1171875 17.1708984,8.83300781 16.6103516,8.26464844 C16.0498047,7.69628906 15.7695312,6.93945312 15.7695312,5.99414062 L15.7695312,5.81835938 C15.7695312,5.18554688 15.8916016,4.62011719 16.1357422,4.12207031 C16.3798828,3.62402344 16.7226562,3.23632812 17.1640625,2.95898438 C17.6054688,2.68164062 18.0976562,2.54296875 18.640625,2.54296875 C19.5039062,2.54296875 20.1708984,2.81835938 20.6416016,3.36914062 C21.1123047,3.91992188 21.3476562,4.69921875 21.3476562,5.70703125 L21.3476562,6.28125 L17.2050781,6.28125 C17.2480469,6.8046875 17.4228516,7.21875 17.7294922,7.5234375 C18.0361328,7.828125 18.421875,7.98046875 18.8867188,7.98046875 C19.5390625,7.98046875 20.0703125,7.71679688 20.4804688,7.18945312 L21.2480469,7.921875 C20.9941406,8.30078125 20.6552734,8.59472656 20.2314453,8.80371094 C19.8076172,9.01269531 19.3320312,9.1171875 18.8046875,9.1171875 Z M18.6347656,3.68554688 C18.2441406,3.68554688 17.9287109,3.82226562 17.6884766,4.09570312 C17.4482422,4.36914062 17.2949219,4.75 17.2285156,5.23828125 L19.9414062,5.23828125 L19.9414062,5.1328125 C19.9101562,4.65625 19.7832031,4.29589844 19.5605469,4.05175781 C19.3378906,3.80761719 19.0292969,3.68554688 18.6347656,3.68554688 Z" id="Shape"></path>
                        <path d="M26.7714844,3.9609375 C26.5839844,3.9296875 26.390625,3.9140625 26.1914062,3.9140625 C25.5390625,3.9140625 25.0996094,4.1640625 24.8730469,4.6640625 L24.8730469,9 L23.4492188,9 L23.4492188,2.66015625 L24.8085938,2.66015625 L24.84375,3.36914062 C25.1875,2.81835938 25.6640625,2.54296875 26.2734375,2.54296875 C26.4765625,2.54296875 26.6445312,2.5703125 26.7773438,2.625 L26.7714844,3.9609375 Z" id="Path"></path>
                        <polygon id="Path" points="37.7832031 5.19140625 34.2792969 5.19140625 34.2792969 7.81640625 38.375 7.81640625 38.375 9 32.796875 9 32.796875 0.46875 38.3339844 0.46875 38.3339844 1.6640625 34.2792969 1.6640625 34.2792969 4.01953125 37.7832031 4.01953125"></polygon>
                        <polygon id="Path" points="42.7207031 4.74609375 43.9277344 2.66015625 45.5097656 2.66015625 43.5703125 5.78320312 45.5742188 9 44.0039062 9 42.7382812 6.83203125 41.4785156 9 39.8964844 9 41.9003906 5.78320312 39.9667969 2.66015625 41.5371094 2.66015625"></polygon>
                        <path d="M53.03125,5.89453125 C53.03125,6.875 52.8085938,7.65722656 52.3632812,8.24121094 C51.9179688,8.82519531 51.3203125,9.1171875 50.5703125,9.1171875 C49.875,9.1171875 49.3183594,8.88867188 48.9003906,8.43164062 L48.9003906,11.4375 L47.4765625,11.4375 L47.4765625,2.66015625 L48.7890625,2.66015625 L48.8476562,3.3046875 C49.265625,2.796875 49.8339844,2.54296875 50.5527344,2.54296875 C51.3261719,2.54296875 51.9326172,2.83105469 52.3720703,3.40722656 C52.8115234,3.98339844 53.03125,4.78320312 53.03125,5.80664062 L53.03125,5.89453125 Z M51.6132812,5.77148438 C51.6132812,5.13867188 51.4873047,4.63671875 51.2353516,4.265625 C50.9833984,3.89453125 50.6230469,3.70898438 50.1542969,3.70898438 C49.5722656,3.70898438 49.1542969,3.94921875 48.9003906,4.4296875 L48.9003906,7.2421875 C49.1582031,7.734375 49.5800781,7.98046875 50.1660156,7.98046875 C50.6191406,7.98046875 50.9736328,7.79785156 51.2294922,7.43261719 C51.4853516,7.06738281 51.6132812,6.51367188 51.6132812,5.77148438 Z" id="Shape"></path>
                        <path d="M58.0273438,9.1171875 C57.125,9.1171875 56.3935547,8.83300781 55.8330078,8.26464844 C55.2724609,7.69628906 54.9921875,6.93945312 54.9921875,5.99414062 L54.9921875,5.81835938 C54.9921875,5.18554688 55.1142578,4.62011719 55.3583984,4.12207031 C55.6025391,3.62402344 55.9453125,3.23632812 56.3867188,2.95898438 C56.828125,2.68164062 57.3203125,2.54296875 57.8632812,2.54296875 C58.7265625,2.54296875 59.3935547,2.81835938 59.8642578,3.36914062 C60.3349609,3.91992188 60.5703125,4.69921875 60.5703125,5.70703125 L60.5703125,6.28125 L56.4277344,6.28125 C56.4707031,6.8046875 56.6455078,7.21875 56.9521484,7.5234375 C57.2587891,7.828125 57.6445312,7.98046875 58.109375,7.98046875 C58.7617188,7.98046875 59.2929688,7.71679688 59.703125,7.18945312 L60.4707031,7.921875 C60.2167969,8.30078125 59.8779297,8.59472656 59.4541016,8.80371094 C59.0302734,9.01269531 58.5546875,9.1171875 58.0273438,9.1171875 Z M57.8574219,3.68554688 C57.4667969,3.68554688 57.1513672,3.82226562 56.9111328,4.09570312 C56.6708984,4.36914062 56.5175781,4.75 56.4511719,5.23828125 L59.1640625,5.23828125 L59.1640625,5.1328125 C59.1328125,4.65625 59.0058594,4.29589844 58.7832031,4.05175781 C58.5605469,3.80761719 58.2519531,3.68554688 57.8574219,3.68554688 Z" id="Shape"></path>
                        <path d="M65.9941406,3.9609375 C65.8066406,3.9296875 65.6132812,3.9140625 65.4140625,3.9140625 C64.7617188,3.9140625 64.3222656,4.1640625 64.0957031,4.6640625 L64.0957031,9 L62.671875,9 L62.671875,2.66015625 L64.03125,2.66015625 L64.0664062,3.36914062 C64.4101562,2.81835938 64.8867188,2.54296875 65.4960938,2.54296875 C65.6992188,2.54296875 65.8671875,2.5703125 66,2.625 L65.9941406,3.9609375 Z" id="Path"></path>
                        <path d="M69.4082031,9 L67.984375,9 L67.984375,2.66015625 L69.4082031,2.66015625 L69.4082031,9 Z M67.8964844,1.01367188 C67.8964844,0.794921875 67.9658203,0.61328125 68.1044922,0.46875 C68.2431641,0.32421875 68.4414062,0.251953125 68.6992188,0.251953125 C68.9570312,0.251953125 69.15625,0.32421875 69.296875,0.46875 C69.4375,0.61328125 69.5078125,0.794921875 69.5078125,1.01367188 C69.5078125,1.22851562 69.4375,1.40722656 69.296875,1.54980469 C69.15625,1.69238281 68.9570312,1.76367188 68.6992188,1.76367188 C68.4414062,1.76367188 68.2431641,1.69238281 68.1044922,1.54980469 C67.9658203,1.40722656 67.8964844,1.22851562 67.8964844,1.01367188 Z" id="Shape"></path>
                        <path d="M74.75,9.1171875 C73.8476562,9.1171875 73.1162109,8.83300781 72.5556641,8.26464844 C71.9951172,7.69628906 71.7148438,6.93945312 71.7148438,5.99414062 L71.7148438,5.81835938 C71.7148438,5.18554688 71.8369141,4.62011719 72.0810547,4.12207031 C72.3251953,3.62402344 72.6679688,3.23632812 73.109375,2.95898438 C73.5507812,2.68164062 74.0429688,2.54296875 74.5859375,2.54296875 C75.4492188,2.54296875 76.1162109,2.81835938 76.5869141,3.36914062 C77.0576172,3.91992188 77.2929688,4.69921875 77.2929688,5.70703125 L77.2929688,6.28125 L73.1503906,6.28125 C73.1933594,6.8046875 73.3681641,7.21875 73.6748047,7.5234375 C73.9814453,7.828125 74.3671875,7.98046875 74.8320312,7.98046875 C75.484375,7.98046875 76.015625,7.71679688 76.4257812,7.18945312 L77.1933594,7.921875 C76.9394531,8.30078125 76.6005859,8.59472656 76.1767578,8.80371094 C75.7529297,9.01269531 75.2773438,9.1171875 74.75,9.1171875 Z M74.5800781,3.68554688 C74.1894531,3.68554688 73.8740234,3.82226562 73.6337891,4.09570312 C73.3935547,4.36914062 73.2402344,4.75 73.1738281,5.23828125 L75.8867188,5.23828125 L75.8867188,5.1328125 C75.8554688,4.65625 75.7285156,4.29589844 75.5058594,4.05175781 C75.2832031,3.80761719 74.9746094,3.68554688 74.5800781,3.68554688 Z" id="Shape"></path>
                        <path d="M80.71875,2.66015625 L80.7597656,3.39257812 C81.2285156,2.82617188 81.84375,2.54296875 82.6054688,2.54296875 C83.9257812,2.54296875 84.5976562,3.29882812 84.6210938,4.81054688 L84.6210938,9 L83.1972656,9 L83.1972656,4.89257812 C83.1972656,4.49023438 83.1103516,4.19238281 82.9365234,3.99902344 C82.7626953,3.80566406 82.4785156,3.70898438 82.0839844,3.70898438 C81.5097656,3.70898438 81.0820312,3.96875 80.8007812,4.48828125 L80.8007812,9 L79.3769531,9 L79.3769531,2.66015625 L80.71875,2.66015625 Z" id="Path"></path>
                        <path d="M89.6757812,7.98046875 C90.03125,7.98046875 90.3261719,7.87695312 90.5605469,7.66992188 C90.7949219,7.46289062 90.9199219,7.20703125 90.9355469,6.90234375 L92.2773438,6.90234375 C92.2617188,7.296875 92.1386719,7.66503906 91.9082031,8.00683594 C91.6777344,8.34863281 91.3652344,8.61914062 90.9707031,8.81835938 C90.5761719,9.01757812 90.1503906,9.1171875 89.6933594,9.1171875 C88.8066406,9.1171875 88.1035156,8.83007812 87.5839844,8.25585938 C87.0644531,7.68164062 86.8046875,6.88867188 86.8046875,5.87695312 L86.8046875,5.73046875 C86.8046875,4.765625 87.0625,3.99316406 87.578125,3.41308594 C88.09375,2.83300781 88.796875,2.54296875 89.6875,2.54296875 C90.4414062,2.54296875 91.0556641,2.76269531 91.5302734,3.20214844 C92.0048828,3.64160156 92.2539062,4.21875 92.2773438,4.93359375 L90.9355469,4.93359375 C90.9199219,4.5703125 90.7958984,4.27148438 90.5634766,4.03710938 C90.3310547,3.80273438 90.0351562,3.68554688 89.6757812,3.68554688 C89.2148438,3.68554688 88.859375,3.85253906 88.609375,4.18652344 C88.359375,4.52050781 88.2324219,5.02734375 88.2285156,5.70703125 L88.2285156,5.93554688 C88.2285156,6.62304688 88.3525391,7.13574219 88.6005859,7.47363281 C88.8486328,7.81152344 89.2070312,7.98046875 89.6757812,7.98046875 Z" id="Path"></path>
                        <path d="M97.1445312,9.1171875 C96.2421875,9.1171875 95.5107422,8.83300781 94.9501953,8.26464844 C94.3896484,7.69628906 94.109375,6.93945312 94.109375,5.99414062 L94.109375,5.81835938 C94.109375,5.18554688 94.2314453,4.62011719 94.4755859,4.12207031 C94.7197266,3.62402344 95.0625,3.23632812 95.5039062,2.95898438 C95.9453125,2.68164062 96.4375,2.54296875 96.9804688,2.54296875 C97.84375,2.54296875 98.5107422,2.81835938 98.9814453,3.36914062 C99.4521484,3.91992188 99.6875,4.69921875 99.6875,5.70703125 L99.6875,6.28125 L95.5449219,6.28125 C95.5878906,6.8046875 95.7626953,7.21875 96.0693359,7.5234375 C96.3759766,7.828125 96.7617188,7.98046875 97.2265625,7.98046875 C97.8789062,7.98046875 98.4101562,7.71679688 98.8203125,7.18945312 L99.5878906,7.921875 C99.3339844,8.30078125 98.9951172,8.59472656 98.5712891,8.80371094 C98.1474609,9.01269531 97.671875,9.1171875 97.1445312,9.1171875 Z M96.9746094,3.68554688 C96.5839844,3.68554688 96.2685547,3.82226562 96.0283203,4.09570312 C95.7880859,4.36914062 95.6347656,4.75 95.5683594,5.23828125 L98.28125,5.23828125 L98.28125,5.1328125 C98.25,4.65625 98.1230469,4.29589844 97.9003906,4.05175781 C97.6777344,3.80761719 97.3691406,3.68554688 96.9746094,3.68554688 Z" id="Shape"></path>
                        <path d="M105.917969,9 L105.917969,0.46875 L108.4375,0.46875 C109.191406,0.46875 109.860352,0.63671875 110.444336,0.97265625 C111.02832,1.30859375 111.480469,1.78515625 111.800781,2.40234375 C112.121094,3.01953125 112.28125,3.7265625 112.28125,4.5234375 L112.28125,4.95117188 C112.28125,5.75976562 112.120117,6.47070313 111.797852,7.08398438 C111.475586,7.69726562 111.016602,8.16992188 110.420898,8.50195312 C109.825195,8.83398438 109.142578,9 108.373047,9 L105.917969,9 Z M107.400391,1.6640625 L107.400391,7.81640625 L108.367188,7.81640625 C109.144531,7.81640625 109.741211,7.57324219 110.157227,7.08691406 C110.573242,6.60058594 110.785156,5.90234375 110.792969,4.9921875 L110.792969,4.51757812 C110.792969,3.59179688 110.591797,2.88476562 110.189453,2.39648438 C109.787109,1.90820312 109.203125,1.6640625 108.4375,1.6640625 L107.400391,1.6640625 Z" id="Shape"></path>
                        <path d="M117.412109,9.1171875 C116.509766,9.1171875 115.77832,8.83300781 115.217773,8.26464844 C114.657227,7.69628906 114.376953,6.93945312 114.376953,5.99414062 L114.376953,5.81835938 C114.376953,5.18554688 114.499023,4.62011719 114.743164,4.12207031 C114.987305,3.62402344 115.330078,3.23632812 115.771484,2.95898438 C116.212891,2.68164062 116.705078,2.54296875 117.248047,2.54296875 C118.111328,2.54296875 118.77832,2.81835938 119.249023,3.36914062 C119.719727,3.91992188 119.955078,4.69921875 119.955078,5.70703125 L119.955078,6.28125 L115.8125,6.28125 C115.855469,6.8046875 116.030273,7.21875 116.336914,7.5234375 C116.643555,7.828125 117.029297,7.98046875 117.494141,7.98046875 C118.146484,7.98046875 118.677734,7.71679688 119.087891,7.18945312 L119.855469,7.921875 C119.601562,8.30078125 119.262695,8.59472656 118.838867,8.80371094 C118.415039,9.01269531 117.939453,9.1171875 117.412109,9.1171875 Z M117.242188,3.68554688 C116.851562,3.68554688 116.536133,3.82226562 116.295898,4.09570312 C116.055664,4.36914062 115.902344,4.75 115.835938,5.23828125 L118.548828,5.23828125 L118.548828,5.1328125 C118.517578,4.65625 118.390625,4.29589844 118.167969,4.05175781 C117.945312,3.80761719 117.636719,3.68554688 117.242188,3.68554688 Z" id="Shape"></path>
                        <path d="M125.613281,7.27734375 C125.613281,7.0234375 125.508789,6.83007812 125.299805,6.69726562 C125.09082,6.56445312 124.744141,6.44726562 124.259766,6.34570312 C123.775391,6.24414062 123.371094,6.11523438 123.046875,5.95898438 C122.335938,5.61523438 121.980469,5.1171875 121.980469,4.46484375 C121.980469,3.91796875 122.210938,3.4609375 122.671875,3.09375 C123.132812,2.7265625 123.71875,2.54296875 124.429688,2.54296875 C125.1875,2.54296875 125.799805,2.73046875 126.266602,3.10546875 C126.733398,3.48046875 126.966797,3.96679688 126.966797,4.56445312 L125.542969,4.56445312 C125.542969,4.29101562 125.441406,4.06347656 125.238281,3.88183594 C125.035156,3.70019531 124.765625,3.609375 124.429688,3.609375 C124.117188,3.609375 123.862305,3.68164062 123.665039,3.82617188 C123.467773,3.97070312 123.369141,4.1640625 123.369141,4.40625 C123.369141,4.625 123.460938,4.79492188 123.644531,4.91601562 C123.828125,5.03710938 124.199219,5.15917969 124.757812,5.28222656 C125.316406,5.40527344 125.754883,5.55175781 126.073242,5.72167969 C126.391602,5.89160156 126.62793,6.09570312 126.782227,6.33398438 C126.936523,6.57226562 127.013672,6.86132812 127.013672,7.20117188 C127.013672,7.77148438 126.777344,8.23339844 126.304688,8.58691406 C125.832031,8.94042969 125.212891,9.1171875 124.447266,9.1171875 C123.927734,9.1171875 123.464844,9.0234375 123.058594,8.8359375 C122.652344,8.6484375 122.335938,8.390625 122.109375,8.0625 C121.882812,7.734375 121.769531,7.38085938 121.769531,7.00195312 L123.152344,7.00195312 C123.171875,7.33789062 123.298828,7.59667969 123.533203,7.77832031 C123.767578,7.95996094 124.078125,8.05078125 124.464844,8.05078125 C124.839844,8.05078125 125.125,7.97949219 125.320312,7.83691406 C125.515625,7.69433594 125.613281,7.5078125 125.613281,7.27734375 Z" id="Path"></path>
                        <path d="M130.767578,9 L129.34375,9 L129.34375,2.66015625 L130.767578,2.66015625 L130.767578,9 Z M129.255859,1.01367188 C129.255859,0.794921875 129.325195,0.61328125 129.463867,0.46875 C129.602539,0.32421875 129.800781,0.251953125 130.058594,0.251953125 C130.316406,0.251953125 130.515625,0.32421875 130.65625,0.46875 C130.796875,0.61328125 130.867188,0.794921875 130.867188,1.01367188 C130.867188,1.22851562 130.796875,1.40722656 130.65625,1.54980469 C130.515625,1.69238281 130.316406,1.76367188 130.058594,1.76367188 C129.800781,1.76367188 129.602539,1.69238281 129.463867,1.54980469 C129.325195,1.40722656 129.255859,1.22851562 129.255859,1.01367188 Z" id="Shape"></path>
                        <path d="M133.068359,5.78320312 C133.068359,4.79882812 133.299805,4.01269531 133.762695,3.42480469 C134.225586,2.83691406 134.839844,2.54296875 135.605469,2.54296875 C136.328125,2.54296875 136.896484,2.79492188 137.310547,3.29882812 L137.375,2.66015625 L138.658203,2.66015625 L138.658203,8.80664062 C138.658203,9.63867188 138.399414,10.2949219 137.881836,10.7753906 C137.364258,11.2558594 136.666016,11.4960938 135.787109,11.4960938 C135.322266,11.4960938 134.868164,11.3994141 134.424805,11.2060547 C133.981445,11.0126953 133.644531,10.7597656 133.414062,10.4472656 L134.087891,9.59179688 C134.525391,10.1113281 135.064453,10.3710938 135.705078,10.3710938 C136.177734,10.3710938 136.550781,10.2431641 136.824219,9.98730469 C137.097656,9.73144531 137.234375,9.35546875 137.234375,8.859375 L137.234375,8.43164062 C136.824219,8.88867188 136.277344,9.1171875 135.59375,9.1171875 C134.851562,9.1171875 134.245117,8.82226562 133.774414,8.23242188 C133.303711,7.64257812 133.068359,6.82617188 133.068359,5.78320312 Z M134.486328,5.90625 C134.486328,6.54296875 134.616211,7.04394531 134.875977,7.40917969 C135.135742,7.77441406 135.496094,7.95703125 135.957031,7.95703125 C136.53125,7.95703125 136.957031,7.7109375 137.234375,7.21875 L137.234375,4.4296875 C136.964844,3.94921875 136.542969,3.70898438 135.96875,3.70898438 C135.5,3.70898438 135.135742,3.89453125 134.875977,4.265625 C134.616211,4.63671875 134.486328,5.18359375 134.486328,5.90625 Z" id="Shape"></path>
                        <path d="M142.441406,2.66015625 L142.482422,3.39257812 C142.951172,2.82617188 143.566406,2.54296875 144.328125,2.54296875 C145.648438,2.54296875 146.320312,3.29882812 146.34375,4.81054688 L146.34375,9 L144.919922,9 L144.919922,4.89257812 C144.919922,4.49023438 144.833008,4.19238281 144.65918,3.99902344 C144.485352,3.80566406 144.201172,3.70898438 143.806641,3.70898438 C143.232422,3.70898438 142.804688,3.96875 142.523438,4.48828125 L142.523438,9 L141.099609,9 L141.099609,2.66015625 L142.441406,2.66015625 Z" id="Path"></path>
                        <path d="M152.556641,6.69726562 C152.556641,6.30273438 152.664062,5.94042969 152.878906,5.61035156 C153.09375,5.28027344 153.517578,4.88867188 154.150391,4.43554688 C153.818359,4.01757812 153.586914,3.66210938 153.456055,3.36914062 C153.325195,3.07617188 153.259766,2.79296875 153.259766,2.51953125 C153.259766,1.8515625 153.462891,1.32324219 153.869141,0.934570312 C154.275391,0.545898438 154.822266,0.3515625 155.509766,0.3515625 C156.130859,0.3515625 156.639648,0.534179688 157.036133,0.899414062 C157.432617,1.26464844 157.630859,1.71679688 157.630859,2.25585938 C157.630859,2.61132812 157.541016,2.93847656 157.361328,3.23730469 C157.181641,3.53613281 156.886719,3.83398438 156.476562,4.13085938 L155.896484,4.55273438 L157.542969,6.49804688 C157.78125,6.02929688 157.900391,5.5078125 157.900391,4.93359375 L159.136719,4.93359375 C159.136719,5.984375 158.890625,6.84570312 158.398438,7.51757812 L159.652344,9 L158,9 L157.519531,8.43164062 C156.910156,8.88867188 156.183594,9.1171875 155.339844,9.1171875 C154.496094,9.1171875 153.821289,8.89355469 153.31543,8.44628906 C152.80957,7.99902344 152.556641,7.41601562 152.556641,6.69726562 Z M155.380859,7.98046875 C155.861328,7.98046875 156.310547,7.8203125 156.728516,7.5 L154.865234,5.30273438 L154.683594,5.43164062 C154.214844,5.78710938 153.980469,6.19335938 153.980469,6.65039062 C153.980469,7.04492188 154.107422,7.36523438 154.361328,7.61132812 C154.615234,7.85742188 154.955078,7.98046875 155.380859,7.98046875 Z M154.595703,2.484375 C154.595703,2.8125 154.796875,3.22460938 155.199219,3.72070312 L155.849609,3.27539062 L156.03125,3.12890625 C156.273438,2.9140625 156.394531,2.63867188 156.394531,2.30273438 C156.394531,2.08007812 156.310547,1.88964844 156.142578,1.73144531 C155.974609,1.57324219 155.761719,1.49414062 155.503906,1.49414062 C155.226562,1.49414062 155.005859,1.58789062 154.841797,1.77539062 C154.677734,1.96289062 154.595703,2.19921875 154.595703,2.484375 Z" id="Shape"></path>
                        <path d="M165.578125,9 L165.578125,0.46875 L168.097656,0.46875 C168.851562,0.46875 169.520508,0.63671875 170.104492,0.97265625 C170.688477,1.30859375 171.140625,1.78515625 171.460938,2.40234375 C171.78125,3.01953125 171.941406,3.7265625 171.941406,4.5234375 L171.941406,4.95117188 C171.941406,5.75976562 171.780273,6.47070313 171.458008,7.08398438 C171.135742,7.69726562 170.676758,8.16992188 170.081055,8.50195312 C169.485352,8.83398438 168.802734,9 168.033203,9 L165.578125,9 Z M167.060547,1.6640625 L167.060547,7.81640625 L168.027344,7.81640625 C168.804688,7.81640625 169.401367,7.57324219 169.817383,7.08691406 C170.233398,6.60058594 170.445312,5.90234375 170.453125,4.9921875 L170.453125,4.51757812 C170.453125,3.59179688 170.251953,2.88476562 169.849609,2.39648438 C169.447266,1.90820312 168.863281,1.6640625 168.097656,1.6640625 L167.060547,1.6640625 Z" id="Shape"></path>
                        <path d="M177.072266,9.1171875 C176.169922,9.1171875 175.438477,8.83300781 174.87793,8.26464844 C174.317383,7.69628906 174.037109,6.93945312 174.037109,5.99414062 L174.037109,5.81835938 C174.037109,5.18554688 174.15918,4.62011719 174.40332,4.12207031 C174.647461,3.62402344 174.990234,3.23632812 175.431641,2.95898438 C175.873047,2.68164062 176.365234,2.54296875 176.908203,2.54296875 C177.771484,2.54296875 178.438477,2.81835938 178.90918,3.36914062 C179.379883,3.91992188 179.615234,4.69921875 179.615234,5.70703125 L179.615234,6.28125 L175.472656,6.28125 C175.515625,6.8046875 175.69043,7.21875 175.99707,7.5234375 C176.303711,7.828125 176.689453,7.98046875 177.154297,7.98046875 C177.806641,7.98046875 178.337891,7.71679688 178.748047,7.18945312 L179.515625,7.921875 C179.261719,8.30078125 178.922852,8.59472656 178.499023,8.80371094 C178.075195,9.01269531 177.599609,9.1171875 177.072266,9.1171875 Z M176.902344,3.68554688 C176.511719,3.68554688 176.196289,3.82226562 175.956055,4.09570312 C175.71582,4.36914062 175.5625,4.75 175.496094,5.23828125 L178.208984,5.23828125 L178.208984,5.1328125 C178.177734,4.65625 178.050781,4.29589844 177.828125,4.05175781 C177.605469,3.80761719 177.296875,3.68554688 176.902344,3.68554688 Z" id="Shape"></path>
                        <polygon id="Path" points="183.878906 7.1953125 185.220703 2.66015625 186.691406 2.66015625 184.494141 9 183.257812 9 181.042969 2.66015625 182.519531 2.66015625"></polygon>
                        <path d="M191.294922,9.1171875 C190.392578,9.1171875 189.661133,8.83300781 189.100586,8.26464844 C188.540039,7.69628906 188.259766,6.93945312 188.259766,5.99414062 L188.259766,5.81835938 C188.259766,5.18554688 188.381836,4.62011719 188.625977,4.12207031 C188.870117,3.62402344 189.212891,3.23632812 189.654297,2.95898438 C190.095703,2.68164062 190.587891,2.54296875 191.130859,2.54296875 C191.994141,2.54296875 192.661133,2.81835938 193.131836,3.36914062 C193.602539,3.91992188 193.837891,4.69921875 193.837891,5.70703125 L193.837891,6.28125 L189.695312,6.28125 C189.738281,6.8046875 189.913086,7.21875 190.219727,7.5234375 C190.526367,7.828125 190.912109,7.98046875 191.376953,7.98046875 C192.029297,7.98046875 192.560547,7.71679688 192.970703,7.18945312 L193.738281,7.921875 C193.484375,8.30078125 193.145508,8.59472656 192.72168,8.80371094 C192.297852,9.01269531 191.822266,9.1171875 191.294922,9.1171875 Z M191.125,3.68554688 C190.734375,3.68554688 190.418945,3.82226562 190.178711,4.09570312 C189.938477,4.36914062 189.785156,4.75 189.71875,5.23828125 L192.431641,5.23828125 L192.431641,5.1328125 C192.400391,4.65625 192.273438,4.29589844 192.050781,4.05175781 C191.828125,3.80761719 191.519531,3.68554688 191.125,3.68554688 Z" id="Shape"></path>
                        <polygon id="Path" points="197.457031 9 196.033203 9 196.033203 0 197.457031 0"></polygon>
                        <path d="M199.740234,5.77148438 C199.740234,5.15039062 199.863281,4.59082031 200.109375,4.09277344 C200.355469,3.59472656 200.701172,3.21191406 201.146484,2.94433594 C201.591797,2.67675781 202.103516,2.54296875 202.681641,2.54296875 C203.537109,2.54296875 204.231445,2.81835938 204.764648,3.36914062 C205.297852,3.91992188 205.585938,4.65039062 205.628906,5.56054688 L205.634766,5.89453125 C205.634766,6.51953125 205.514648,7.078125 205.274414,7.5703125 C205.03418,8.0625 204.69043,8.44335938 204.243164,8.71289062 C203.795898,8.98242188 203.279297,9.1171875 202.693359,9.1171875 C201.798828,9.1171875 201.083008,8.81933594 200.545898,8.22363281 C200.008789,7.62792969 199.740234,6.83398438 199.740234,5.84179688 L199.740234,5.77148438 Z M201.164062,5.89453125 C201.164062,6.546875 201.298828,7.05761719 201.568359,7.42675781 C201.837891,7.79589844 202.212891,7.98046875 202.693359,7.98046875 C203.173828,7.98046875 203.547852,7.79296875 203.81543,7.41796875 C204.083008,7.04296875 204.216797,6.49414062 204.216797,5.77148438 C204.216797,5.13085938 204.079102,4.62304688 203.803711,4.24804688 C203.52832,3.87304688 203.154297,3.68554688 202.681641,3.68554688 C202.216797,3.68554688 201.847656,3.87011719 201.574219,4.23925781 C201.300781,4.60839844 201.164062,5.16015625 201.164062,5.89453125 Z" id="Shape"></path>
                        <path d="M213.390625,5.89453125 C213.390625,6.875 213.167969,7.65722656 212.722656,8.24121094 C212.277344,8.82519531 211.679688,9.1171875 210.929688,9.1171875 C210.234375,9.1171875 209.677734,8.88867188 209.259766,8.43164062 L209.259766,11.4375 L207.835938,11.4375 L207.835938,2.66015625 L209.148438,2.66015625 L209.207031,3.3046875 C209.625,2.796875 210.193359,2.54296875 210.912109,2.54296875 C211.685547,2.54296875 212.291992,2.83105469 212.731445,3.40722656 C213.170898,3.98339844 213.390625,4.78320312 213.390625,5.80664062 L213.390625,5.89453125 Z M211.972656,5.77148438 C211.972656,5.13867188 211.84668,4.63671875 211.594727,4.265625 C211.342773,3.89453125 210.982422,3.70898438 210.513672,3.70898438 C209.931641,3.70898438 209.513672,3.94921875 209.259766,4.4296875 L209.259766,7.2421875 C209.517578,7.734375 209.939453,7.98046875 210.525391,7.98046875 C210.978516,7.98046875 211.333008,7.79785156 211.588867,7.43261719 C211.844727,7.06738281 211.972656,6.51367188 211.972656,5.77148438 Z" id="Shape"></path>
                        <path d="M216.933594,2.66015625 L216.974609,3.32226562 C217.419922,2.80273438 218.029297,2.54296875 218.802734,2.54296875 C219.650391,2.54296875 220.230469,2.8671875 220.542969,3.515625 C221.003906,2.8671875 221.652344,2.54296875 222.488281,2.54296875 C223.1875,2.54296875 223.708008,2.73632812 224.049805,3.12304688 C224.391602,3.50976562 224.566406,4.08007812 224.574219,4.83398438 L224.574219,9 L223.150391,9 L223.150391,4.875 C223.150391,4.47265625 223.0625,4.17773438 222.886719,3.99023438 C222.710938,3.80273438 222.419922,3.70898438 222.013672,3.70898438 C221.689453,3.70898438 221.424805,3.79589844 221.219727,3.96972656 C221.014648,4.14355469 220.871094,4.37109375 220.789062,4.65234375 L220.794922,9 L219.371094,9 L219.371094,4.828125 C219.351562,4.08203125 218.970703,3.70898438 218.228516,3.70898438 C217.658203,3.70898438 217.253906,3.94140625 217.015625,4.40625 L217.015625,9 L215.591797,9 L215.591797,2.66015625 L216.933594,2.66015625 Z" id="Path"></path>
                        <path d="M229.828125,9.1171875 C228.925781,9.1171875 228.194336,8.83300781 227.633789,8.26464844 C227.073242,7.69628906 226.792969,6.93945312 226.792969,5.99414062 L226.792969,5.81835938 C226.792969,5.18554688 226.915039,4.62011719 227.15918,4.12207031 C227.40332,3.62402344 227.746094,3.23632812 228.1875,2.95898438 C228.628906,2.68164062 229.121094,2.54296875 229.664062,2.54296875 C230.527344,2.54296875 231.194336,2.81835938 231.665039,3.36914062 C232.135742,3.91992188 232.371094,4.69921875 232.371094,5.70703125 L232.371094,6.28125 L228.228516,6.28125 C228.271484,6.8046875 228.446289,7.21875 228.75293,7.5234375 C229.05957,7.828125 229.445312,7.98046875 229.910156,7.98046875 C230.5625,7.98046875 231.09375,7.71679688 231.503906,7.18945312 L232.271484,7.921875 C232.017578,8.30078125 231.678711,8.59472656 231.254883,8.80371094 C230.831055,9.01269531 230.355469,9.1171875 229.828125,9.1171875 Z M229.658203,3.68554688 C229.267578,3.68554688 228.952148,3.82226562 228.711914,4.09570312 C228.47168,4.36914062 228.318359,4.75 228.251953,5.23828125 L230.964844,5.23828125 L230.964844,5.1328125 C230.933594,4.65625 230.806641,4.29589844 230.583984,4.05175781 C230.361328,3.80761719 230.052734,3.68554688 229.658203,3.68554688 Z" id="Shape"></path>
                        <path d="M235.796875,2.66015625 L235.837891,3.39257812 C236.306641,2.82617188 236.921875,2.54296875 237.683594,2.54296875 C239.003906,2.54296875 239.675781,3.29882812 239.699219,4.81054688 L239.699219,9 L238.275391,9 L238.275391,4.89257812 C238.275391,4.49023438 238.188477,4.19238281 238.014648,3.99902344 C237.84082,3.80566406 237.556641,3.70898438 237.162109,3.70898438 C236.587891,3.70898438 236.160156,3.96875 235.878906,4.48828125 L235.878906,9 L234.455078,9 L234.455078,2.66015625 L235.796875,2.66015625 Z" id="Path"></path>
                        <path d="M243.933594,1.11914062 L243.933594,2.66015625 L245.052734,2.66015625 L245.052734,3.71484375 L243.933594,3.71484375 L243.933594,7.25390625 C243.933594,7.49609375 243.981445,7.67089844 244.077148,7.77832031 C244.172852,7.88574219 244.34375,7.93945312 244.589844,7.93945312 C244.753906,7.93945312 244.919922,7.91992188 245.087891,7.88085938 L245.087891,8.98242188 C244.763672,9.07226562 244.451172,9.1171875 244.150391,9.1171875 C243.056641,9.1171875 242.509766,8.51367188 242.509766,7.30664062 L242.509766,3.71484375 L241.466797,3.71484375 L241.466797,2.66015625 L242.509766,2.66015625 L242.509766,1.11914062 L243.933594,1.11914062 Z" id="Path"></path>
                    </g>
                </g>
            </g>
        </g>
    </g>
</svg>